{"title":"BNT-World.Ekopateka.Kotlen,Karlukovo,Zlatna.Panega.TVRip.H264-72","uid":6446152,"size":354367579,"categoryP":"video","categoryS":"other","magnet":"?xt=urn:btih:e73a0ea075d0373bfdff034c956c0e365cb8cbbd&amp;dn=BNT-World.Ekopateka.Kotlen%2CKarlukovo%2CZlatna.Panega.TVRip.H264-72&amp;tr=udp%3A%2F%2Ftracker.openbittorrent.com%3A80&amp;tr=udp%3A%2F%2Fopen.demonii.com%3A1337&amp;tr=udp%3A%2F%2Ftracker.coppersurfer.tk%3A6969&amp;tr=udp%3A%2F%2Fexodus.desync.com%3A6969","seeders":0,"leechers":1,"uploader":"MixerX","files":-1,"time":1307285597,"description":"HARDCODED ENGLISH SUBTITLES!\n\nGeopark Iskar-Panega, http://www.geopark-bg.com/e_index.html\n\n\n--- GENERAL ------------------------------------------------------------\nComplete name                    : BNT-World.Ekopateka.Kotlen,Karlukovo,Zlatna.Panega.TVRip.H264-720x576-FS.AAC-2.EngHSub.MixerX.mp4\nFormat                           : MPEG-4\nFormat profile                   : Base Media\nCodec ID                         : isom\nFile size                        : 293 MiB\nDuration                         : 24mn 54s\nOverall bit rate                 : 1 642 Kbps\nWriting application              : Lavf52.64.2\n\n--- VIDEO --------------------------------------------------------------\nID                               : 1\nFormat                           : AVC\nFormat/Info                      : Advanced Video Codec\nFormat profile                   : &lt;a class=&quot;__cf_email__&quot; href=&quot;/cdn-cgi/l/email-protection&quot; data-cfemail=&quot;cf87a6a8a78f83fbe1ff&quot;&gt;[email&amp;#160;protected]&lt;/a&gt;&lt;script cf-hash='f9e31' type=&quot;text/javascript&quot;&gt;\n/* &lt;![CDATA[ */!function(){try{var t=&quot;currentScript&quot;in document?document.currentScript:function(){for(var t=document.getElementsByTagName(&quot;script&quot;),e=t.length;e--;)if(t[e].getAttribute(&quot;cf-hash&quot;))return t[e]}();if(t&amp;&amp;t.previousSibling){var e,r,n,i,c=t.previousSibling,a=c.getAttribute(&quot;data-cfemail&quot;);if(a){for(e=&quot;&quot;,r=parseInt(a.substr(0,2),16),n=2;a.length-n;n+=2)i=parseInt(a.substr(n,2),16)^r,e+=String.fromCharCode(i);e=document.createTextNode(e),c.parentNode.replaceChild(e,c)}}}catch(u){}}();/* ]]&gt; */&lt;/script&gt;\nFormat settings, CABAC           : Yes\nFormat settings, ReFrames        : 16 frames\nCodec ID                         : avc1\nCodec ID/Info                    : Advanced Video Coding\nDuration                         : 24mn 54s\nBit rate mode                    : Variable\nBit rate                         : 1 536 Kbps\nWidth                            : 720 pixels\nHeight                           : 576 pixels\nDisplay aspect ratio             : 4:3\nOriginal display aspect ratio    : 4:3\nFrame rate mode                  : Constant\nFrame rate                       : 25.000 fps\nStandard                         : PAL\nColor space                      : YUV\nChroma subsampling               : 4:2:0\nBit depth                        : 8 bits\nScan type                        : Progressive\nBits/(Pixel*Frame)               : 0.148\nStream size                      : 273 MiB (93%)\nWriting library                  : x264 core 115\nEncoding settings                : cabac=1 / ref=16 / deblock=1:0:0 / analyse=0x3:0x133 / me=tesa / subme=10 / psy=1 / psy_rd=1.00:0.00 / mixed_ref=1 / me_range=24 / chroma_me=1 / trellis=2 / 8x8dct=1 / cqm=0 / deadzone=21,11 / fast_pskip=0 / chroma_qp_offset=-2 / threads=3 / sliced_threads=0 / nr=0 / decimate=1 / interlaced=0 / bluray_compat=0 / constrained_intra=0 / bframes=16 / b_pyramid=2 / b_adapt=2 / b_bias=0 / direct=3 / weightb=1 / open_gop=0 / weightp=2 / keyint=250 / keyint_min=25 / scenecut=40 / intra_refresh=0 / rc_lookahead=60 / rc=2pass / mbtree=1 / bitrate=1536 / ratetol=2.6 / qcomp=0.60 / qpmin=10 / qpmax=51 / qpstep=4 / cplxblur=20.0 / qblur=0.5 / ip_ratio=1.41 / aq=1:1.00\nLanguage                         : English\n\n--- AUDIO --------------------------------------------------------------\nID                               : 2\nFormat                           : AAC\nFormat/Info                      : Advanced Audio Codec\nFormat profile                   : LC\nCodec ID                         : 40\nDuration                         : 24mn 54s\nBit rate mode                    : Variable\nBit rate                         : 102 Kbps\nChannel(s)                       : 2 channels\nChannel positions                : Front: L R\nSampling rate                    : 48.0 KHz\nCompression mode                 : Lossy\nStream size                      : 18.2 MiB (6%)\nLanguage                         : Bulgarian","torrent":{"xt":"urn:btih:e73a0ea075d0373bfdff034c956c0e365cb8cbbd","amp;dn":"BNT-World.Ekopateka.Kotlen%2CKarlukovo%2CZlatna.Panega.TVRip.H264-72","amp;tr":["udp%3A%2F%2Ftracker.openbittorrent.com%3A80","udp%3A%2F%2Fopen.demonii.com%3A1337","udp%3A%2F%2Ftracker.coppersurfer.tk%3A6969","udp%3A%2F%2Fexodus.desync.com%3A6969"],"infoHash":"e73a0ea075d0373bfdff034c956c0e365cb8cbbd","infoHashBuffer":{"type":"Buffer","data":[231,58,14,160,117,208,55,59,253,255,3,76,149,108,14,54,92,184,203,189]},"announce":[],"urlList":[]}}